<svg width="20" height="21" viewBox="0 0 20 21" fill="none" xmlns="http://www.w3.org/2000/svg">
<path d="M10.8334 4.66667V6.33334M10.8334 14.6667V16.3333M10.8334 9.66667V11.3333M1.66675 8.00001C2.32979 8.00001 2.96567 8.2634 3.43451 8.73224C3.90336 9.20108 4.16675 9.83696 4.16675 10.5C4.16675 11.163 3.90336 11.7989 3.43451 12.2678C2.96567 12.7366 2.32979 13 1.66675 13V14.6667C1.66675 15.1087 1.84234 15.5326 2.1549 15.8452C2.46746 16.1577 2.89139 16.3333 3.33341 16.3333H16.6667C17.1088 16.3333 17.5327 16.1577 17.8453 15.8452C18.1578 15.5326 18.3334 15.1087 18.3334 14.6667V13C17.6704 13 17.0345 12.7366 16.5656 12.2678C16.0968 11.7989 15.8334 11.163 15.8334 10.5C15.8334 9.83696 16.0968 9.20108 16.5656 8.73224C17.0345 8.2634 17.6704 8.00001 18.3334 8.00001V6.33334C18.3334 5.89131 18.1578 5.46739 17.8453 5.15483C17.5327 4.84227 17.1088 4.66667 16.6667 4.66667H3.33341C2.89139 4.66667 2.46746 4.84227 2.1549 5.15483C1.84234 5.46739 1.66675 5.89131 1.66675 6.33334V8.00001Z" stroke="white" stroke-width="1.5" stroke-linecap="round" stroke-linejoin="round"/>
</svg>
