<svg width="100%" height="100%" viewBox="0 0 615 88" preserveAspectRatio="none" fill="none" xmlns="http://www.w3.org/2000/svg">
<path d="M0 14.184C0 6.45204 6.26801 0.184021 14 0.184021H601C608.732 0.184021 615 6.45204 615 14.184V73.184C615 80.916 608.732 87.184 601 87.184H14C6.268 87.184 0 80.916 0 73.184V14.184Z" fill="url(#paint0_linear_2006_305)" fill-opacity="0.2"/>
<path fill-rule="evenodd" clip-rule="evenodd" d="M601 2.18402H14C7.37258 2.18402 2 7.5566 2 14.184V73.184C2 79.8114 7.37257 85.184 14 85.184H601C607.627 85.184 613 79.8114 613 73.184V14.184C613 7.5566 607.627 2.18402 601 2.18402ZM14 0.184021C6.26801 0.184021 0 6.45204 0 14.184V73.184C0 80.916 6.268 87.184 14 87.184H601C608.732 87.184 615 80.916 615 73.184V14.184C615 6.45204 608.732 0.184021 601 0.184021H14Z" fill="url(#paint1_linear_2006_305)"/>
<defs>
<linearGradient id="paint0_linear_2006_305" x1="-176.228" y1="96.1602" x2="605.553" y2="-39.19" gradientUnits="userSpaceOnUse">
<stop stop-opacity="0"/>
<stop offset="1" stop-color="white"/>
</linearGradient>
<linearGradient id="paint1_linear_2006_305" x1="330.877" y1="43.684" x2="330.979" y2="87.5056" gradientUnits="userSpaceOnUse">
<stop stop-color="#514401" stop-opacity="0.23"/>
<stop offset="1" stop-color="#F6D31B"/>
</linearGradient>
</defs>
</svg>
